<?xml version="1.0" encoding="UTF-8"?>
<svg xmlns="http://www.w3.org/2000/svg" width="1600" height="1000" viewBox="0 0 1600 1000" preserveAspectRatio="none">
  <defs>
    <linearGradient id="bg" x1="0" y1="0" x2="1" y2="1">
      <stop offset="0%" stop-color="#6f2cff"/>
      <stop offset="45%" stop-color="#1a78ff"/>
      <stop offset="100%" stop-color="#20e3b2"/>
    </linearGradient>

    <radialGradient id="hazePink" cx="50%" cy="45%" r="65%">
      <stop offset="0%" stop-color="#ff5bbf" stop-opacity="0.55"/>
      <stop offset="60%" stop-color="#ff5bbf" stop-opacity="0.12"/>
      <stop offset="100%" stop-color="#ff5bbf" stop-opacity="0"/>
    </radialGradient>

    <radialGradient id="hazeBlue" cx="65%" cy="35%" r="70%">
      <stop offset="0%" stop-color="#7bd3ff" stop-opacity="0.35"/>
      <stop offset="65%" stop-color="#7bd3ff" stop-opacity="0.10"/>
      <stop offset="100%" stop-color="#7bd3ff" stop-opacity="0"/>
    </radialGradient>

    <radialGradient id="hazeGreen" cx="40%" cy="70%" r="70%">
      <stop offset="0%" stop-color="#a7ff83" stop-opacity="0.28"/>
      <stop offset="70%" stop-color="#a7ff83" stop-opacity="0.08"/>
      <stop offset="100%" stop-color="#a7ff83" stop-opacity="0"/>
    </radialGradient>

    <filter id="softGlow" x="-60%" y="-60%" width="220%" height="220%" color-interpolation-filters="sRGB">
      <feGaussianBlur stdDeviation="18" result="blur"/>
      <feColorMatrix in="blur" type="matrix"
        values="1 0 0 0 0
                0 1 0 0 0
                0 0 1 0 0
                0 0 0 0.85 0" result="glow"/>
      <feMerge>
        <feMergeNode in="glow"/>
        <feMergeNode in="SourceGraphic"/>
      </feMerge>
    </filter>

    <filter id="hazeBlur" x="-40%" y="-40%" width="180%" height="180%" color-interpolation-filters="sRGB">
      <feGaussianBlur stdDeviation="30"/>
    </filter>
  </defs>

  <!-- Smooth gradient base -->
  <rect width="1600" height="1000" fill="url(#bg)"/>

  <!-- Dreamy hazy neon layers -->
  <g filter="url(#hazeBlur)">
    <rect width="1600" height="1000" fill="url(#hazePink)"/>
    <rect width="1600" height="1000" fill="url(#hazeBlue)"/>
    <rect width="1600" height="1000" fill="url(#hazeGreen)"/>
  </g>

  <!-- Center star + pastel radiating glow -->
  <g transform="translate(800 500)">
    <!-- Outer glow rings (pastel pink / yellow / green) -->
    <g filter="url(#softGlow)" opacity="0.95">
      <polygon points="0,-210 55,-60 210,-60 80,30 125,190 0,95 -125,190 -80,30 -210,-60 -55,-60"
        fill="none" stroke="#ff79c6" stroke-width="28" stroke-linejoin="round" opacity="0.55"/>
      <polygon points="0,-200 52,-58 200,-58 76,28 118,180 0,90 -118,180 -76,28 -200,-58 -52,-58"
        fill="none" stroke="#ffe27d" stroke-width="26" stroke-linejoin="round" opacity="0.45"/>
      <polygon points="0,-190 50,-55 190,-55 72,26 112,170 0,86 -112,170 -72,26 -190,-55 -50,-55"
        fill="none" stroke="#86ffb6" stroke-width="24" stroke-linejoin="round" opacity="0.40"/>
    </g>

    <!-- Soft filled star in the center -->
    <g filter="url(#softGlow)">
      <polygon points="0,-170 45,-50 170,-50 65,25 100,155 0,78 -100,155 -65,25 -170,-50 -45,-50"
        fill="rgba(255,255,255,0.72)"/>
    </g>
  </g>
</svg>
